<svg data-v-423bf9ae="" xmlns="http://www.w3.org/2000/svg" viewBox="0 0 568.2549743613594 60" class="font"><!----><!----><!----><g data-v-423bf9ae="" id="a505bfa3-b953-49c4-9df5-46e1aadd5051" fill="black" transform="matrix(4.780876421364159,0,0,4.780876421364159,2.0557771953428414,-3.394422693023877)"><path d="M7.46 1.26L7.46 1.26Q7.52 1.25 7.66 1.25L7.66 1.25L7.66 1.25Q7.85 1.25 7.99 1.33L7.99 1.33L7.99 1.33Q8.13 1.41 8.13 1.60L8.13 1.60L8.13 1.60Q8.13 1.81 7.89 1.96L7.89 1.96L7.89 1.96Q7.64 2.11 7.36 2.18L7.36 2.18L7.36 2.18Q6.36 2.46 5.45 2.58L5.45 2.58L5.45 2.58Q5.24 4.66 4.79 6.85L4.79 6.85L4.79 6.85Q4.35 9.04 3.70 11.49L3.70 11.49L3.70 11.49Q5.01 11.47 5.66 11.40L5.66 11.40L5.66 11.40Q6.12 11.35 6.12 11.63L6.12 11.63L6.12 11.63Q6.12 11.84 5.88 12.08L5.88 12.08L5.88 12.08Q5.64 12.31 5.38 12.33L5.38 12.33L5.38 12.33Q3.43 12.59 1.71 12.59L1.71 12.59L1.71 12.59Q0.77 12.59-0.13 12.50L-0.13 12.50L-0.13 12.50Q-0.43 12.46-0.43 12.33L-0.43 12.33L-0.43 12.33Q-0.43 12.17-0.04 11.91L-0.04 11.91L-0.04 11.91Q0.36 11.66 0.56 11.65L0.56 11.65L0.56 11.65Q1.37 11.55 2.24 11.52L2.24 11.52L2.24 11.52Q2.91 8.93 3.35 6.83L3.35 6.83L3.35 6.83Q3.78 4.72 3.98 2.69L3.98 2.69L3.98 2.69Q2.86 2.72 2.00 2.56L2.00 2.56L2.00 2.56Q1.71 2.51 1.71 2.37L1.71 2.37L1.71 2.37Q1.71 2.18 2.09 1.95L2.09 1.95L2.09 1.95Q2.48 1.72 2.69 1.71L2.69 1.71L2.69 1.71Q3.47 1.64 4.21 1.62L4.21 1.62L4.98 1.58L5.08 1.58L5.08 1.58Q6.51 1.51 7.46 1.26L7.46 1.26ZM10.00 5.98L10.00 5.98Q10.00 6.51 10.27 6.92L10.27 6.92L10.27 6.92Q10.54 7.32 10.93 7.60L10.93 7.60L10.93 7.60Q11.33 7.88 12.00 8.26L12.00 8.26L12.00 8.26Q12.91 8.78 13.39 9.20L13.39 9.20L13.39 9.20Q13.87 9.62 14.03 10.25L14.03 10.25L14.03 10.25Q14.08 10.53 14.08 10.65L14.08 10.65L14.08 10.65Q14.08 11.63 13.05 12.06L13.05 12.06L13.05 12.06Q12.01 12.49 10.70 12.49L10.70 12.49L10.70 12.49Q10.18 12.49 9.79 12.42L9.79 12.42L9.79 12.42Q9.32 12.33 8.83 12.09L8.83 12.09L8.83 12.09Q8.33 11.84 8.00 11.49L8.00 11.49L8.00 11.49Q7.67 11.13 7.67 10.75L7.67 10.75L7.67 10.75Q7.67 10.16 8.58 9.67L8.58 9.67L8.58 9.67Q8.83 9.55 9.07 9.55L9.07 9.55L9.07 9.55Q9.30 9.55 9.44 9.65L9.44 9.65L9.44 9.65Q9.59 9.74 9.59 9.88L9.59 9.88L9.59 9.88Q9.59 10.14 9.18 10.37L9.18 10.37L9.18 10.37Q9.10 10.42 9.10 10.50L9.10 10.50L9.10 10.50Q9.10 10.67 9.37 10.91L9.37 10.91L9.37 10.91Q9.63 11.14 9.79 11.23L9.79 11.23L9.79 11.23Q10.21 11.47 11.13 11.52L11.13 11.52L11.13 11.52Q11.24 11.54 11.52 11.54L11.52 11.54L11.52 11.54Q12.03 11.54 12.33 11.37L12.33 11.37L12.33 11.37Q12.64 11.20 12.60 10.75L12.60 10.75L12.60 10.75Q12.54 10.15 11.38 9.39L11.38 9.39L10.85 9.06L10.85 9.06Q10.12 8.61 9.65 8.27L9.65 8.27L9.65 8.27Q9.18 7.92 8.85 7.44L8.85 7.44L8.85 7.44Q8.51 6.96 8.51 6.36L8.51 6.36L8.51 6.36Q8.51 5.98 8.65 5.60L8.65 5.60L8.65 5.60Q8.96 4.69 9.80 4.19L9.80 4.19L9.80 4.19Q10.64 3.70 11.61 3.70L11.61 3.70L11.61 3.70Q12.60 3.70 13.28 4.20L13.28 4.20L13.28 4.20Q13.96 4.70 13.96 5.63L13.96 5.63L13.96 5.63Q13.96 5.92 13.87 6.26L13.87 6.26L13.87 6.26Q13.82 6.51 13.45 6.69L13.45 6.69L13.45 6.69Q13.09 6.87 12.77 6.87L12.77 6.87L12.77 6.87Q12.57 6.87 12.47 6.79L12.47 6.79L12.47 6.79Q12.36 6.71 12.42 6.55L12.42 6.55L12.42 6.55Q12.50 6.26 12.50 5.96L12.50 5.96L12.50 5.96Q12.50 5.50 12.26 5.18L12.26 5.18L12.26 5.18Q12.03 4.86 11.56 4.73L11.56 4.73L11.56 4.73Q11.31 4.68 11.19 4.68L11.19 4.68L11.19 4.68Q10.68 4.68 10.34 5.03L10.34 5.03L10.34 5.03Q10.00 5.39 10.00 5.98L10.00 5.98ZM19.94 9.49L19.94 9.49Q20.03 9.39 20.24 9.34L20.24 9.34L20.24 9.34Q20.45 9.28 20.66 9.28L20.66 9.28L20.66 9.28Q21.18 9.28 21.18 9.55L21.18 9.55L21.18 9.55Q21.18 9.67 21.04 9.83L21.04 9.83L21.04 9.83Q20.87 10.02 20.73 10.20L20.73 10.20L20.73 10.20Q20.59 10.37 20.48 10.51L20.48 10.51L20.48 10.51Q19.87 11.31 19.38 11.78L19.38 11.78L19.38 11.78Q18.89 12.25 18.23 12.46L18.23 12.46L18.23 12.46Q17.92 12.56 17.57 12.56L17.57 12.56L17.57 12.56Q16.98 12.56 16.57 12.22L16.57 12.22L16.57 12.22Q16.16 11.89 16.09 11.24L16.09 11.24L16.09 11.24Q16.06 11.06 16.06 10.68L16.06 10.68L16.06 10.68Q16.06 9.95 16.23 9.20L16.23 9.20L16.23 9.20Q16.39 8.44 16.72 7.31L16.72 7.31L16.88 6.71L16.35 6.76L16.35 6.76Q15.96 6.79 15.29 6.87L15.29 6.87L15.29 6.87Q14.97 6.92 14.80 6.80L14.80 6.80L14.80 6.80Q14.63 6.69 14.63 6.51L14.63 6.51L14.63 6.51Q14.63 6.30 14.83 6.10L14.83 6.10L14.83 6.10Q15.04 5.89 15.36 5.87L15.36 5.87L17.16 5.66L17.16 5.66Q17.78 3.39 18.55 1.20L18.55 1.20L18.55 1.20Q18.62 1.01 18.94 0.86L18.94 0.86L18.94 0.86Q19.25 0.71 19.54 0.71L19.54 0.71L19.54 0.71Q19.73 0.71 19.85 0.78L19.85 0.78L19.85 0.78Q19.96 0.85 19.96 0.99L19.96 0.99L19.96 0.99Q19.96 1.04 19.94 1.15L19.94 1.15L19.94 1.15Q19.12 3.43 18.58 5.50L18.58 5.50L18.58 5.50Q19.56 5.40 19.88 5.40L19.88 5.40L19.88 5.40Q20.29 5.40 20.29 5.64L20.29 5.64L20.29 5.64Q20.29 5.84 20.05 6.07L20.05 6.07L20.05 6.07Q19.81 6.30 19.56 6.36L19.56 6.36L19.56 6.36Q18.72 6.50 18.30 6.55L18.30 6.55L18.30 6.55Q18.06 7.50 17.88 8.41L17.88 8.41L17.88 8.41Q17.85 8.53 17.68 9.23L17.68 9.23L17.68 9.23Q17.51 9.94 17.51 10.56L17.51 10.56L17.51 10.56Q17.51 11.35 17.93 11.42L17.93 11.42L17.93 11.42Q18.20 11.47 18.54 11.12L18.54 11.12L18.54 11.12Q18.89 10.78 19.43 10.09L19.43 10.09L19.43 10.09Q19.77 9.66 19.94 9.49L19.94 9.49ZM24.02 1.71L24.02 1.71Q23.87 1.67 23.72 1.67L23.72 1.67L23.72 1.67Q23.41 1.67 23.17 1.82L23.17 1.82L23.17 1.82Q22.86 1.99 22.82 2.16L22.82 2.16L22.82 2.16Q22.64 2.81 22.58 3.02L22.58 3.02L22.58 3.07L22.58 3.07Q22.58 3.14 22.64 3.20L22.64 3.20L22.64 3.20Q22.69 3.26 22.76 3.29L22.76 3.29L22.76 3.29Q22.88 3.35 23.02 3.35L23.02 3.35L23.02 3.35Q23.24 3.35 23.55 3.21L23.55 3.21L23.55 3.21Q23.87 3.08 23.97 2.84L23.97 2.84L23.97 2.84Q24.05 2.60 24.21 2.00L24.21 2.00L24.21 1.97L24.21 1.97Q24.21 1.90 24.15 1.83L24.15 1.83L24.15 1.83Q24.09 1.75 24.02 1.71L24.02 1.71ZM23.94 4.30L23.48 7.32L23.48 7.32Q23.39 7.88 23.16 9.35L23.16 9.35L23.16 9.35Q22.93 10.81 22.78 12.00L22.78 12.00L22.78 12.00Q22.74 12.26 22.41 12.45L22.41 12.45L22.41 12.45Q22.08 12.64 21.74 12.64L21.74 12.64L21.74 12.64Q21.52 12.64 21.40 12.55L21.40 12.55L21.40 12.55Q21.28 12.46 21.31 12.28L21.31 12.28L21.31 12.28Q21.55 10.88 21.82 9.08L21.82 9.08L21.82 9.08Q22.09 7.28 22.20 6.51L22.20 6.51L22.50 4.59L22.50 4.59Q22.54 4.34 22.88 4.16L22.88 4.16L22.88 4.16Q23.23 3.98 23.55 3.98L23.55 3.98L23.55 3.98Q23.74 3.98 23.86 4.06L23.86 4.06L23.86 4.06Q23.97 4.14 23.94 4.30L23.94 4.30ZM25.40 10.51L25.40 10.51Q25.37 10.68 25.37 10.75L25.37 10.75L25.37 10.75Q25.37 11.31 25.91 11.31L25.91 11.31L25.91 11.31Q26.24 11.31 26.70 11.13L26.70 11.13L26.70 11.13Q27.12 10.96 28.25 10.42L28.25 10.42L28.25 10.42Q28.28 10.07 28.32 9.74L28.32 9.74L28.32 9.74Q28.35 9.41 28.38 9.14L28.38 9.14L28.48 8.18L28.48 8.18Q27.51 8.64 27.03 8.90L27.03 8.90L27.03 8.90Q26.33 9.31 25.91 9.67L25.91 9.67L25.91 9.67Q25.49 10.02 25.40 10.51L25.40 10.51ZM29.04 3.92L29.04 3.92Q29.67 3.92 29.88 4.23L29.88 4.23L29.88 4.23Q30.10 4.55 30.10 5.15L30.10 5.15L30.09 5.54L30.09 5.54Q30.03 6.57 29.83 8.54L29.83 8.54L29.83 8.54Q29.79 8.82 29.74 9.48L29.74 9.48L29.74 9.48Q29.68 9.88 29.64 10.14L29.64 10.14L29.64 10.14Q29.79 10.22 29.79 10.36L29.79 10.36L29.79 10.36Q29.79 10.46 29.69 10.65L29.69 10.65L29.64 10.72L29.55 10.81L29.55 10.81Q29.46 11.52 29.46 12.03L29.46 12.03L29.46 12.03Q29.65 12.14 29.65 12.29L29.65 12.29L29.65 12.29Q29.65 12.53 29.30 12.80L29.30 12.80L29.30 12.80Q29.20 12.87 29.08 12.94L29.08 12.94L29.08 12.94Q28.98 12.99 28.80 13.03L28.80 13.03L28.80 13.03Q28.63 13.08 28.46 13.08L28.46 13.08L28.46 13.08Q27.94 13.08 27.99 12.70L27.99 12.70L28.10 11.52L28.10 11.52Q26.22 12.42 25.21 12.42L25.21 12.42L25.21 12.42Q23.94 12.42 23.94 11.05L23.94 11.05L23.94 11.05Q23.94 9.73 25.30 8.81L25.30 8.81L25.30 8.81Q26.67 7.88 28.57 7.14L28.57 7.14L28.57 7.14Q28.63 6.59 28.66 6.03L28.66 6.03L28.66 6.03Q28.66 5.92 28.67 5.75L28.67 5.75L28.67 5.75Q28.69 5.59 28.69 5.38L28.69 5.38L28.69 5.38Q28.69 5.11 28.64 5.03L28.64 5.03L28.60 4.97L28.59 4.97L28.59 4.97Q28.38 4.97 27.80 5.54L27.80 5.54L27.80 5.54Q27.29 6.05 26.52 7.06L26.52 7.06L26.52 7.06Q26.40 7.21 26.14 7.31L26.14 7.31L26.14 7.31Q25.89 7.41 25.62 7.41L25.62 7.41L25.62 7.41Q25.42 7.41 25.29 7.34L25.29 7.34L25.29 7.34Q25.16 7.27 25.16 7.13L25.16 7.13L25.16 7.13Q25.16 7.01 25.27 6.83L25.27 6.83L25.27 6.83Q27.20 3.92 29.04 3.92L29.04 3.92ZM36.57 6.44L36.57 6.44Q37.06 6.76 37.06 7.50L37.06 7.50L37.06 7.50Q37.06 7.97 36.88 8.60L36.88 8.60L36.75 9.07L36.75 9.07Q36.54 9.83 36.34 10.63L36.34 10.63L36.34 10.63Q36.13 11.42 36.01 12.11L36.01 12.11L36.01 12.11Q35.97 12.36 35.64 12.54L35.64 12.54L35.64 12.54Q35.31 12.73 34.97 12.73L34.97 12.73L34.97 12.73Q34.76 12.73 34.65 12.64L34.65 12.64L34.65 12.64Q34.54 12.56 34.57 12.39L34.57 12.39L34.57 12.39Q34.73 11.51 35.21 9.77L35.21 9.77L35.52 8.61L35.52 8.61Q35.66 8.05 35.66 7.80L35.66 7.80L35.66 7.80Q35.66 7.60 35.59 7.49L35.59 7.49L35.59 7.49Q35.42 7.24 35.04 7.24L35.04 7.24L35.04 7.24Q34.72 7.24 34.22 7.42L34.22 7.42L34.22 7.42Q33.60 7.60 32.65 8.13L32.65 8.13L32.40 11.69L32.40 11.69Q32.38 11.96 32.04 12.15L32.04 12.15L32.04 12.15Q31.70 12.35 31.35 12.35L31.35 12.35L31.35 12.35Q31.12 12.35 31.00 12.26L31.00 12.26L31.00 12.26Q30.88 12.17 30.90 11.98L30.90 11.98L30.90 11.98Q31.07 10.00 31.14 9.00L31.14 9.00L31.14 9.00Q30.93 8.99 30.79 8.92L30.79 8.92L30.79 8.92Q30.65 8.85 30.65 8.72L30.65 8.72L30.65 8.72Q30.65 8.54 30.87 8.33L30.87 8.33L30.87 8.33Q31.00 8.23 31.22 8.01L31.22 8.01L31.22 8.01Q31.51 4.37 31.71 1.39L31.71 1.39L31.71 1.39Q31.72 1.13 32.07 0.95L32.07 0.95L32.07 0.95Q32.41 0.76 32.75 0.76L32.75 0.76L32.75 0.76Q32.96 0.76 33.08 0.84L33.08 0.84L33.08 0.84Q33.19 0.92 33.18 1.09L33.18 1.09L33.18 1.09Q32.96 3.84 32.76 6.59L32.76 6.59L32.76 6.59Q34.37 5.11 35.88 3.92L35.88 3.92L35.88 3.92Q36.01 3.82 36.20 3.77L36.20 3.77L36.20 3.77Q36.39 3.72 36.57 3.72L36.57 3.72L36.57 3.72Q36.78 3.72 36.91 3.79L36.91 3.79L36.91 3.79Q37.04 3.85 37.04 3.98L37.04 3.98L37.04 3.98Q37.04 4.14 36.82 4.33L36.82 4.33L35.43 5.57L34.54 6.38L34.54 6.38Q35.24 6.19 35.69 6.19L35.69 6.19L35.69 6.19Q36.22 6.19 36.57 6.44L36.57 6.44ZM48.90 1.60L48.90 1.60Q48.99 1.40 49.32 1.25L49.32 1.25L49.32 1.25Q49.66 1.11 49.95 1.11L49.95 1.11L49.95 1.11Q50.34 1.11 50.34 1.36L50.34 1.36L50.34 1.36Q50.34 1.46 50.32 1.51L50.32 1.51L50.32 1.51Q49.39 3.82 48.71 6.27L48.71 6.27L49.08 6.26L49.08 6.26Q49.55 6.24 49.55 6.45L49.55 6.45L49.55 6.45Q49.55 6.65 49.22 6.90L49.22 6.90L49.22 6.90Q48.89 7.15 48.61 7.18L48.61 7.18L48.45 7.21L48.45 7.21Q47.85 9.53 47.46 12.18L47.46 12.18L47.46 12.18Q47.42 12.45 47.04 12.64L47.04 12.64L47.04 12.64Q46.66 12.84 46.30 12.84L46.30 12.84L46.30 12.84Q46.10 12.84 45.99 12.75L45.99 12.75L45.99 12.75Q45.88 12.67 45.89 12.52L45.89 12.52L45.89 12.52Q46.26 9.91 46.90 7.43L46.90 7.43L46.90 7.43Q45.54 7.69 44.18 8.11L44.18 8.11L44.18 8.11Q43.86 9.62 43.51 11.89L43.51 11.89L43.51 11.89Q43.47 12.15 43.09 12.35L43.09 12.35L43.09 12.35Q42.71 12.54 42.35 12.54L42.35 12.54L42.35 12.54Q42.14 12.54 42.03 12.46L42.03 12.46L42.03 12.46Q41.92 12.38 41.94 12.21L41.94 12.21L41.94 12.21Q42.24 10.23 42.59 8.53L42.59 8.53L42.59 8.53Q42.31 8.46 42.31 8.22L42.31 8.22L42.31 8.22Q42.31 8.08 42.43 7.94L42.43 7.94L42.43 7.94Q42.55 7.80 42.77 7.69L42.77 7.69L42.77 7.69Q43.53 4.44 44.63 1.82L44.63 1.82L44.63 1.82Q44.72 1.62 45.05 1.48L45.05 1.48L45.05 1.48Q45.39 1.33 45.70 1.33L45.70 1.33L45.70 1.33Q46.09 1.33 46.09 1.58L46.09 1.58L46.09 1.58Q46.09 1.68 46.06 1.74L46.06 1.74L46.06 1.74Q45.12 4.13 44.41 7.07L44.41 7.07L44.41 7.07Q45.74 6.64 47.18 6.43L47.18 6.43L47.18 6.43Q47.94 3.81 48.90 1.60L48.90 1.60ZM51.39 10.51L51.39 10.51Q51.37 10.68 51.37 10.75L51.37 10.75L51.37 10.75Q51.37 11.31 51.91 11.31L51.91 11.31L51.91 11.31Q52.23 11.31 52.70 11.13L52.70 11.13L52.70 11.13Q53.12 10.96 54.25 10.42L54.25 10.42L54.25 10.42Q54.28 10.07 54.31 9.74L54.31 9.74L54.31 9.74Q54.35 9.41 54.38 9.14L54.38 9.14L54.47 8.18L54.47 8.18Q53.51 8.64 53.03 8.90L53.03 8.90L53.03 8.90Q52.33 9.31 51.91 9.67L51.91 9.67L51.91 9.67Q51.49 10.02 51.39 10.51L51.39 10.51ZM55.03 3.92L55.03 3.92Q55.66 3.92 55.88 4.23L55.88 4.23L55.88 4.23Q56.10 4.55 56.10 5.15L56.10 5.15L56.08 5.54L56.08 5.54Q56.03 6.57 55.83 8.54L55.83 8.54L55.83 8.54Q55.79 8.82 55.73 9.48L55.73 9.48L55.73 9.48Q55.68 9.88 55.64 10.14L55.64 10.14L55.64 10.14Q55.79 10.22 55.79 10.36L55.79 10.36L55.79 10.36Q55.79 10.46 55.69 10.65L55.69 10.65L55.64 10.72L55.55 10.81L55.55 10.81Q55.45 11.52 55.45 12.03L55.45 12.03L55.45 12.03Q55.65 12.14 55.65 12.29L55.65 12.29L55.65 12.29Q55.65 12.53 55.30 12.80L55.30 12.80L55.30 12.80Q55.20 12.87 55.08 12.94L55.08 12.94L55.08 12.94Q54.98 12.99 54.80 13.03L54.80 13.03L54.80 13.03Q54.63 13.08 54.46 13.08L54.46 13.08L54.46 13.08Q53.94 13.08 53.98 12.70L53.98 12.70L54.10 11.52L54.10 11.52Q52.22 12.42 51.21 12.42L51.21 12.42L51.21 12.42Q49.94 12.42 49.94 11.05L49.94 11.05L49.94 11.05Q49.94 9.73 51.30 8.81L51.30 8.81L51.30 8.81Q52.67 7.88 54.57 7.14L54.57 7.14L54.57 7.14Q54.63 6.59 54.66 6.03L54.66 6.03L54.66 6.03Q54.66 5.92 54.67 5.75L54.67 5.75L54.67 5.75Q54.68 5.59 54.68 5.38L54.68 5.38L54.68 5.38Q54.68 5.11 54.64 5.03L54.64 5.03L54.60 4.97L54.59 4.97L54.59 4.97Q54.38 4.97 53.80 5.54L53.80 5.54L53.80 5.54Q53.28 6.05 52.51 7.06L52.51 7.06L52.51 7.06Q52.40 7.21 52.14 7.31L52.14 7.31L52.14 7.31Q51.88 7.41 51.62 7.41L51.62 7.41L51.62 7.41Q51.42 7.41 51.29 7.34L51.29 7.34L51.29 7.34Q51.16 7.27 51.16 7.13L51.16 7.13L51.16 7.13Q51.16 7.01 51.27 6.83L51.27 6.83L51.27 6.83Q53.20 3.92 55.03 3.92L55.03 3.92ZM58.88 5.98L58.88 5.98Q58.88 6.51 59.16 6.92L59.16 6.92L59.16 6.92Q59.43 7.32 59.82 7.60L59.82 7.60L59.82 7.60Q60.21 7.88 60.89 8.26L60.89 8.26L60.89 8.26Q61.80 8.78 62.28 9.20L62.28 9.20L62.28 9.20Q62.76 9.62 62.92 10.25L62.92 10.25L62.92 10.25Q62.97 10.53 62.97 10.65L62.97 10.65L62.97 10.65Q62.97 11.63 61.94 12.06L61.94 12.06L61.94 12.06Q60.90 12.49 59.58 12.49L59.58 12.49L59.58 12.49Q59.07 12.49 58.67 12.42L58.67 12.42L58.67 12.42Q58.21 12.33 57.71 12.09L57.71 12.09L57.71 12.09Q57.22 11.84 56.89 11.49L56.89 11.49L56.89 11.49Q56.56 11.13 56.56 10.75L56.56 10.75L56.56 10.75Q56.56 10.16 57.47 9.67L57.47 9.67L57.47 9.67Q57.72 9.55 57.96 9.55L57.96 9.55L57.96 9.55Q58.18 9.55 58.33 9.65L58.33 9.65L58.33 9.65Q58.48 9.74 58.48 9.88L58.48 9.88L58.48 9.88Q58.48 10.14 58.07 10.37L58.07 10.37L58.07 10.37Q57.99 10.42 57.99 10.50L57.99 10.50L57.99 10.50Q57.99 10.67 58.25 10.91L58.25 10.91L58.25 10.91Q58.52 11.14 58.67 11.23L58.67 11.23L58.67 11.23Q59.09 11.47 60.02 11.52L60.02 11.52L60.02 11.52Q60.13 11.54 60.41 11.54L60.41 11.54L60.41 11.54Q60.91 11.54 61.22 11.37L61.22 11.37L61.22 11.37Q61.53 11.20 61.49 10.75L61.49 10.75L61.49 10.75Q61.43 10.15 60.27 9.39L60.27 9.39L59.74 9.06L59.74 9.06Q59.01 8.61 58.54 8.27L58.54 8.27L58.54 8.27Q58.07 7.92 57.74 7.44L57.74 7.44L57.74 7.44Q57.40 6.96 57.40 6.36L57.40 6.36L57.40 6.36Q57.40 5.98 57.54 5.60L57.54 5.60L57.54 5.60Q57.85 4.69 58.69 4.19L58.69 4.19L58.69 4.19Q59.53 3.70 60.49 3.70L60.49 3.70L60.49 3.70Q61.49 3.70 62.17 4.20L62.17 4.20L62.17 4.20Q62.85 4.70 62.85 5.63L62.85 5.63L62.85 5.63Q62.85 5.92 62.76 6.26L62.76 6.26L62.76 6.26Q62.71 6.51 62.34 6.69L62.34 6.69L62.34 6.69Q61.98 6.87 61.66 6.87L61.66 6.87L61.66 6.87Q61.46 6.87 61.35 6.79L61.35 6.79L61.35 6.79Q61.25 6.71 61.31 6.55L61.31 6.55L61.31 6.55Q61.39 6.26 61.39 5.96L61.39 5.96L61.39 5.96Q61.39 5.50 61.15 5.18L61.15 5.18L61.15 5.18Q60.91 4.86 60.45 4.73L60.45 4.73L60.45 4.73Q60.20 4.68 60.07 4.68L60.07 4.68L60.07 4.68Q59.57 4.68 59.23 5.03L59.23 5.03L59.23 5.03Q58.88 5.39 58.88 5.98L58.88 5.98ZM65.65 5.98L65.65 5.98Q65.65 6.51 65.92 6.92L65.92 6.92L65.92 6.92Q66.19 7.32 66.58 7.60L66.58 7.60L66.58 7.60Q66.98 7.88 67.65 8.26L67.65 8.26L67.65 8.26Q68.56 8.78 69.04 9.20L69.04 9.20L69.04 9.20Q69.52 9.62 69.68 10.25L69.68 10.25L69.68 10.25Q69.73 10.53 69.73 10.65L69.73 10.65L69.73 10.65Q69.73 11.63 68.70 12.06L68.70 12.06L68.70 12.06Q67.66 12.49 66.35 12.49L66.35 12.49L66.35 12.49Q65.83 12.49 65.44 12.42L65.44 12.42L65.44 12.42Q64.97 12.33 64.48 12.09L64.48 12.09L64.48 12.09Q63.98 11.84 63.65 11.49L63.65 11.49L63.65 11.49Q63.32 11.13 63.32 10.75L63.32 10.75L63.32 10.75Q63.32 10.16 64.23 9.67L64.23 9.67L64.23 9.67Q64.48 9.55 64.72 9.55L64.72 9.55L64.72 9.55Q64.95 9.55 65.09 9.65L65.09 9.65L65.09 9.65Q65.24 9.74 65.24 9.88L65.24 9.88L65.24 9.88Q65.24 10.14 64.83 10.37L64.83 10.37L64.83 10.37Q64.75 10.42 64.75 10.50L64.75 10.50L64.75 10.50Q64.75 10.67 65.02 10.91L65.02 10.91L65.02 10.91Q65.28 11.14 65.44 11.23L65.44 11.23L65.44 11.23Q65.86 11.47 66.78 11.52L66.78 11.52L66.78 11.52Q66.89 11.54 67.17 11.54L67.17 11.54L67.17 11.54Q67.68 11.54 67.98 11.37L67.98 11.37L67.98 11.37Q68.29 11.20 68.25 10.75L68.25 10.75L68.25 10.75Q68.19 10.15 67.03 9.39L67.03 9.39L66.50 9.06L66.50 9.06Q65.77 8.61 65.30 8.27L65.30 8.27L65.30 8.27Q64.83 7.92 64.50 7.44L64.50 7.44L64.50 7.44Q64.16 6.96 64.16 6.36L64.16 6.36L64.16 6.36Q64.16 5.98 64.30 5.60L64.30 5.60L64.30 5.60Q64.61 4.69 65.45 4.19L65.45 4.19L65.45 4.19Q66.29 3.70 67.26 3.70L67.26 3.70L67.26 3.70Q68.25 3.70 68.93 4.20L68.93 4.20L68.93 4.20Q69.61 4.70 69.61 5.63L69.61 5.63L69.61 5.63Q69.61 5.92 69.52 6.26L69.52 6.26L69.52 6.26Q69.47 6.51 69.10 6.69L69.10 6.69L69.10 6.69Q68.74 6.87 68.42 6.87L68.42 6.87L68.42 6.87Q68.22 6.87 68.12 6.79L68.12 6.79L68.12 6.79Q68.01 6.71 68.07 6.55L68.07 6.55L68.07 6.55Q68.15 6.26 68.15 5.96L68.15 5.96L68.15 5.96Q68.15 5.50 67.91 5.18L67.91 5.18L67.91 5.18Q67.68 4.86 67.21 4.73L67.21 4.73L67.21 4.73Q66.96 4.68 66.84 4.68L66.84 4.68L66.84 4.68Q66.33 4.68 65.99 5.03L65.99 5.03L65.99 5.03Q65.65 5.39 65.65 5.98L65.65 5.98ZM71.51 10.51L71.51 10.51Q71.48 10.68 71.48 10.75L71.48 10.75L71.48 10.75Q71.48 11.31 72.03 11.31L72.03 11.31L72.03 11.31Q72.35 11.31 72.81 11.13L72.81 11.13L72.81 11.13Q73.23 10.96 74.37 10.42L74.37 10.42L74.37 10.42Q74.40 10.07 74.43 9.74L74.43 9.74L74.43 9.74Q74.47 9.41 74.49 9.14L74.49 9.14L74.59 8.18L74.59 8.18Q73.63 8.64 73.15 8.90L73.15 8.90L73.15 8.90Q72.45 9.31 72.03 9.67L72.03 9.67L72.03 9.67Q71.61 10.02 71.51 10.51L71.51 10.51ZM75.15 3.92L75.15 3.92Q75.78 3.92 76.00 4.23L76.00 4.23L76.00 4.23Q76.22 4.55 76.22 5.15L76.22 5.15L76.20 5.54L76.20 5.54Q76.15 6.57 75.95 8.54L75.95 8.54L75.95 8.54Q75.91 8.82 75.85 9.48L75.85 9.48L75.85 9.48Q75.80 9.88 75.75 10.14L75.75 10.14L75.75 10.14Q75.91 10.22 75.91 10.36L75.91 10.36L75.91 10.36Q75.91 10.46 75.81 10.65L75.81 10.65L75.75 10.72L75.67 10.81L75.67 10.81Q75.57 11.52 75.57 12.03L75.57 12.03L75.57 12.03Q75.77 12.14 75.77 12.29L75.77 12.29L75.77 12.29Q75.77 12.53 75.42 12.80L75.42 12.80L75.42 12.80Q75.32 12.87 75.19 12.94L75.19 12.94L75.19 12.94Q75.10 12.99 74.92 13.03L74.92 13.03L74.92 13.03Q74.75 13.08 74.58 13.08L74.58 13.08L74.58 13.08Q74.06 13.08 74.10 12.70L74.10 12.70L74.21 11.52L74.21 11.52Q72.34 12.42 71.33 12.42L71.33 12.42L71.33 12.42Q70.06 12.42 70.06 11.05L70.06 11.05L70.06 11.05Q70.06 9.73 71.42 8.81L71.42 8.81L71.42 8.81Q72.79 7.88 74.69 7.14L74.69 7.14L74.69 7.14Q74.75 6.59 74.77 6.03L74.77 6.03L74.77 6.03Q74.77 5.92 74.79 5.75L74.79 5.75L74.79 5.75Q74.80 5.59 74.80 5.38L74.80 5.38L74.80 5.38Q74.80 5.11 74.76 5.03L74.76 5.03L74.72 4.97L74.70 4.97L74.70 4.97Q74.49 4.97 73.92 5.54L73.92 5.54L73.92 5.54Q73.40 6.05 72.63 7.06L72.63 7.06L72.63 7.06Q72.52 7.21 72.26 7.31L72.26 7.31L72.26 7.31Q72.00 7.41 71.74 7.41L71.74 7.41L71.74 7.41Q71.54 7.41 71.41 7.34L71.41 7.34L71.41 7.34Q71.27 7.27 71.27 7.13L71.27 7.13L71.27 7.13Q71.27 7.01 71.39 6.83L71.39 6.83L71.39 6.83Q73.32 3.92 75.15 3.92L75.15 3.92ZM82.53 4.06L82.53 4.06Q83.09 4.37 83.09 5.36L83.09 5.36L83.09 5.36Q83.09 5.73 83.02 6.17L83.02 6.17L83.02 6.17Q82.95 6.61 82.87 7L82.87 7L82.77 7.56L82.18 11.91L82.18 11.91Q82.46 11.98 82.42 12.26L82.42 12.26L82.42 12.26Q82.26 13.03 81.33 13.24L81.33 13.24L81.19 13.26L81.19 13.26Q80.95 13.26 80.77 13.16L80.77 13.16L80.77 13.16Q80.58 13.06 80.61 12.85L80.61 12.85L80.61 12.85Q81.20 8.60 81.48 6.47L81.48 6.47L81.48 6.47Q81.49 6.41 81.54 6.15L81.54 6.15L81.54 6.15Q81.59 5.88 81.59 5.64L81.59 5.64L81.59 5.64Q81.59 5.19 81.35 5.18L81.35 5.18L81.35 5.18Q81.17 5.15 80.76 5.68L80.76 5.68L80.76 5.68Q80.35 6.20 80.30 6.26L80.30 6.26L80.30 6.26Q79.46 7.21 78.74 8.39L78.74 8.39L78.74 8.39Q78.40 10.43 78.20 11.69L78.20 11.69L78.13 12.14L78.13 12.14Q78.09 12.40 77.74 12.60L77.74 12.60L77.74 12.60Q77.39 12.80 77.06 12.80L77.06 12.80L77.06 12.80Q76.85 12.80 76.73 12.71L76.73 12.71L76.73 12.71Q76.61 12.61 76.64 12.43L76.64 12.43L76.64 12.43Q77 10.29 77.21 8.93L77.21 8.93L77.21 8.93Q77.13 8.85 77.13 8.74L77.13 8.74L77.13 8.74Q77.13 8.67 77.17 8.58L77.17 8.58L77.17 8.58Q77.21 8.51 77.25 8.46L77.25 8.46L77.25 8.46Q77.28 8.40 77.31 8.36L77.31 8.36L77.87 4.97L77.87 4.97Q77.91 4.72 78.25 4.54L78.25 4.54L78.25 4.54Q78.58 4.35 78.92 4.35L78.92 4.35L78.92 4.35Q79.13 4.35 79.24 4.44L79.24 4.44L79.24 4.44Q79.35 4.52 79.32 4.69L79.32 4.69L79.32 4.69Q79.25 5.15 79.13 5.88L79.13 5.88L79.72 5.25L79.72 5.25Q80.30 4.66 80.84 4.28L80.84 4.28L80.84 4.28Q81.37 3.91 81.91 3.91L81.91 3.91L81.91 3.91Q82.26 3.91 82.53 4.06L82.53 4.06ZM96.24 1.61L96.24 1.61Q96.56 1.67 96.56 1.85L96.56 1.85L96.56 1.85Q96.56 1.99 96.36 2.16L96.36 2.16L96.36 2.16Q96.17 2.34 95.91 2.45L95.91 2.45L95.91 2.45Q95.65 2.56 95.47 2.53L95.47 2.53L95.47 2.53Q94.79 2.44 94.04 2.44L94.04 2.44L94.04 2.44Q92.71 2.44 91 2.81L91 2.81L91 2.81Q90.48 4.55 89.98 6.62L89.98 6.62L89.98 6.62Q91.60 6.26 92.83 6.26L92.83 6.26L92.83 6.26Q93.18 6.26 93.37 6.27L93.37 6.27L93.37 6.27Q93.66 6.29 93.66 6.54L93.66 6.54L93.66 6.54Q93.66 6.82 93.36 6.99L93.36 6.99L93.36 6.99Q93.06 7.15 92.74 7.17L92.74 7.17L92.74 7.17Q91.24 7.29 89.75 7.59L89.75 7.59L89.75 7.59Q89.35 9.30 88.98 11.31L88.98 11.31L88.98 11.31Q90.52 11.24 91.77 11.24L91.77 11.24L91.77 11.24Q93.42 11.24 94.81 11.40L94.81 11.40L94.81 11.40Q95.10 11.44 95.10 11.68L95.10 11.68L95.10 11.68Q95.10 11.80 95.02 11.96L95.02 11.96L95.02 11.96Q94.88 12.17 94.59 12.26L94.59 12.26L94.59 12.26Q94.30 12.35 94.02 12.32L94.02 12.32L94.02 12.32Q93.21 12.25 92.08 12.25L92.08 12.25L92.08 12.25Q91.14 12.25 90.19 12.29L90.19 12.29L90.19 12.29Q89.24 12.32 88.76 12.32L88.76 12.32L88.76 12.32Q88.62 12.52 88.29 12.66L88.29 12.66L88.29 12.66Q87.96 12.80 87.68 12.80L87.68 12.80L87.68 12.80Q87.47 12.80 87.36 12.71L87.36 12.71L87.36 12.71Q87.25 12.63 87.28 12.47L87.28 12.47L87.28 12.47Q87.28 12.43 87.30 12.32L87.30 12.32L87.28 12.32L87.28 12.32Q86.81 12.32 86.81 12.08L86.81 12.08L86.81 12.08Q86.81 11.93 87.01 11.75L87.01 11.75L87.01 11.75Q87.21 11.56 87.46 11.45L87.46 11.45L87.46 11.45Q87.89 9.09 88.35 7.08L88.35 7.08L88.35 7.08Q88.82 5.07 89.43 3.21L89.43 3.21L89.32 3.22L89.32 3.22Q89.15 3.22 89.06 3.14L89.06 3.14L89.06 3.14Q88.97 3.05 88.97 2.93L88.97 2.93L88.97 2.93Q88.97 2.76 89.11 2.59L89.11 2.59L89.11 2.59Q89.25 2.42 89.49 2.34L89.49 2.34L89.75 2.25L89.82 2.07L89.82 2.07Q89.89 1.86 90.20 1.71L90.20 1.71L90.20 1.71Q90.51 1.57 90.82 1.57L90.82 1.57L90.82 1.57Q91.22 1.57 91.27 1.83L91.27 1.83L91.27 1.83Q92.93 1.44 94.36 1.44L94.36 1.44L94.36 1.44Q95.31 1.44 96.24 1.61L96.24 1.61ZM104.62 3.99L104.62 3.99Q104.55 5.46 104.55 6.62L104.55 6.62L104.55 6.62Q104.55 9.51 104.94 11.76L104.94 11.76L104.94 11.76Q105 12.08 104.69 12.31L104.69 12.31L104.69 12.31Q104.38 12.54 104.02 12.54L104.02 12.54L104.02 12.54Q103.81 12.54 103.67 12.45L103.67 12.45L103.67 12.45Q103.53 12.35 103.50 12.15L103.50 12.15L103.50 12.15Q103.14 9.44 103.08 7.08L103.08 7.08L103.08 7.08Q102.41 8.68 101.47 11.56L101.47 11.56L101.47 11.56Q101.46 11.62 101.39 11.72L101.39 11.72L101.39 11.72Q101.26 11.89 101.01 11.98L101.01 11.98L101.01 11.98Q100.76 12.08 100.51 12.08L100.51 12.08L100.51 12.08Q100.31 12.08 100.20 12.03L100.20 12.03L100.20 12.03Q100.02 11.93 100.02 11.76L100.02 11.76L100.02 11.76Q100.02 11.72 100.04 11.61L100.04 11.61L100.04 11.61Q100.06 11.45 100.06 11.16L100.06 11.16L100.06 11.16Q100.06 10.67 99.97 9.74L99.97 9.74L99.92 8.99L99.92 8.99Q99.86 7.62 99.82 6.93L99.82 6.93L99.82 6.93Q99.15 8.16 98.76 8.75L98.76 8.75L98.76 8.75Q98.42 10.53 97.64 12.19L97.64 12.19L97.64 12.19Q97.54 12.39 97.22 12.53L97.22 12.53L97.22 12.53Q96.89 12.67 96.59 12.67L96.59 12.67L96.59 12.67Q96.39 12.67 96.27 12.60L96.27 12.60L96.27 12.60Q96.15 12.53 96.15 12.40L96.15 12.40L96.15 12.40Q96.15 12.32 96.19 12.22L96.19 12.22L96.19 12.22Q96.84 10.82 97.17 9.35L97.17 9.35L97.17 9.35Q97.12 9.30 97.12 9.20L97.12 9.20L97.12 9.20Q97.12 9.06 97.23 8.90L97.23 8.90L97.29 8.81L97.29 8.81Q97.51 7.69 97.51 6.43L97.51 6.43L97.51 6.43Q97.51 5.89 97.47 5.38L97.47 5.38L97.47 5.38Q97.45 5.14 97.79 4.94L97.79 4.94L97.79 4.94Q98.13 4.75 98.48 4.75L98.48 4.75L98.48 4.75Q98.67 4.75 98.80 4.83L98.80 4.83L98.80 4.83Q98.92 4.91 98.94 5.07L98.94 5.07L98.94 5.07Q98.97 5.32 98.99 5.88L98.99 5.88L98.99 5.88Q99.32 5.29 99.68 4.77L99.68 4.77L99.68 4.77Q99.71 4.54 100.02 4.36L100.02 4.36L100.02 4.36Q100.32 4.19 100.66 4.19L100.66 4.19L100.66 4.19Q100.87 4.19 101.02 4.28L101.02 4.28L101.02 4.28Q101.16 4.37 101.18 4.56L101.18 4.56L101.18 4.56Q101.32 6.37 101.37 7.78L101.37 7.78L101.37 7.78Q102.31 5.49 103.24 3.99L103.24 3.99L103.24 3.99Q103.33 3.84 103.61 3.71L103.61 3.71L103.61 3.71Q103.89 3.58 104.16 3.58L104.16 3.58L104.16 3.58Q104.37 3.58 104.50 3.68L104.50 3.68L104.50 3.68Q104.64 3.78 104.62 3.99L104.62 3.99ZM110.66 7.71L110.66 7.71Q110.66 6.23 108.92 5.38L108.92 5.38L108.92 5.38Q108.49 5.74 108.05 6.34L108.05 6.34L108.05 6.34Q107.52 7.11 107.17 8.06L107.17 8.06L107.17 8.06Q107.03 8.44 106.90 9.09L106.90 9.09L106.90 9.09Q106.78 9.74 106.78 10.30L106.78 10.30L106.78 10.30Q106.78 10.88 106.94 11.22L106.94 11.22L106.94 11.22Q107.10 11.56 107.46 11.56L107.46 11.56L107.46 11.56Q107.76 11.56 108.15 11.33L108.15 11.33L108.15 11.33Q109.23 10.70 109.94 9.76L109.94 9.76L109.94 9.76Q110.66 8.82 110.66 7.71L110.66 7.71ZM111.05 5.18L111.05 5.18Q111.55 5.66 111.82 6.26L111.82 6.26L111.82 6.26Q112.10 6.86 112.10 7.53L112.10 7.53L112.10 7.53Q112.10 8.50 111.54 9.49L111.54 9.49L111.54 9.49Q111.16 10.16 110.43 10.91L110.43 10.91L110.43 10.91Q109.70 11.65 108.81 12.16L108.81 12.16L108.81 12.16Q107.93 12.67 107.11 12.67L107.11 12.67L107.11 12.67Q106.61 12.67 106.16 12.45L106.16 12.45L106.16 12.45Q105.21 11.93 105.21 10.58L105.21 10.58L105.21 10.58Q105.21 9.62 105.64 8.46L105.64 8.46L105.64 8.46Q106.08 7.31 106.57 6.51L106.57 6.51L106.57 6.51Q107.76 4.62 109.07 4.13L109.07 4.13L109.07 4.13Q109.44 3.99 109.86 3.99L109.86 3.99L109.86 3.99Q110.35 3.99 110.68 4.23L110.68 4.23L110.68 4.23Q111.02 4.48 111.08 5.00L111.08 5.00L111.08 5.05L111.08 5.05Q111.08 5.10 111.05 5.18L111.05 5.18ZM117.87 4.06L117.87 4.06Q118.43 4.37 118.43 5.36L118.43 5.36L118.43 5.36Q118.43 5.73 118.36 6.17L118.36 6.17L118.36 6.17Q118.29 6.61 118.20 7L118.20 7L118.10 7.56L117.52 11.91L117.52 11.91Q117.80 11.98 117.75 12.26L117.75 12.26L117.75 12.26Q117.60 13.03 116.66 13.24L116.66 13.24L116.52 13.26L116.52 13.26Q116.28 13.26 116.10 13.16L116.10 13.16L116.10 13.16Q115.92 13.06 115.95 12.85L115.95 12.85L115.95 12.85Q116.54 8.60 116.82 6.47L116.82 6.47L116.82 6.47Q116.83 6.41 116.88 6.15L116.88 6.15L116.88 6.15Q116.93 5.88 116.93 5.64L116.93 5.64L116.93 5.64Q116.93 5.19 116.69 5.18L116.69 5.18L116.69 5.18Q116.51 5.15 116.09 5.68L116.09 5.68L116.09 5.68Q115.68 6.20 115.64 6.26L115.64 6.26L115.64 6.26Q114.80 7.21 114.07 8.39L114.07 8.39L114.07 8.39Q113.74 10.43 113.54 11.69L113.54 11.69L113.47 12.14L113.47 12.14Q113.43 12.40 113.08 12.60L113.08 12.60L113.08 12.60Q112.73 12.80 112.39 12.80L112.39 12.80L112.39 12.80Q112.18 12.80 112.06 12.71L112.06 12.71L112.06 12.71Q111.94 12.61 111.97 12.43L111.97 12.43L111.97 12.43Q112.34 10.29 112.55 8.93L112.55 8.93L112.55 8.93Q112.46 8.85 112.46 8.74L112.46 8.74L112.46 8.74Q112.46 8.67 112.50 8.58L112.50 8.58L112.50 8.58Q112.55 8.51 112.58 8.46L112.58 8.46L112.58 8.46Q112.62 8.40 112.64 8.36L112.64 8.36L113.20 4.97L113.20 4.97Q113.25 4.72 113.58 4.54L113.58 4.54L113.58 4.54Q113.92 4.35 114.25 4.35L114.25 4.35L114.25 4.35Q114.46 4.35 114.58 4.44L114.58 4.44L114.58 4.44Q114.69 4.52 114.66 4.69L114.66 4.69L114.66 4.69Q114.59 5.15 114.46 5.88L114.46 5.88L115.05 5.25L115.05 5.25Q115.64 4.66 116.17 4.28L116.17 4.28L116.17 4.28Q116.70 3.91 117.25 3.91L117.25 3.91L117.25 3.91Q117.60 3.91 117.87 4.06L117.87 4.06Z"></path></g><!----><!----></svg>